M48
; DRILL file {KiCad (5.1.8)-1} date 03/15/21 08:23:43
; FORMAT={-:-/ absolute / metric / decimal}
; #@! TF.CreationDate,2021-03-15T08:23:43+01:00
; #@! TF.GenerationSoftware,Kicad,Pcbnew,(5.1.8)-1
FMAT,2
METRIC
T1C0.400
T2C0.500
T3C0.800
T4C1.200
T5C1.700
T6C2.000
T7C3.200
%
G90
G05
T1
X55.88Y-63.5
X55.88Y-66.04
X55.88Y-68.58
X55.88Y-71.12
X55.88Y-73.66
X55.88Y-76.2
X55.88Y-78.74
X55.88Y-81.28
X55.88Y-83.82
X55.88Y-86.36
X55.88Y-92.71
X55.88Y-95.25
X55.88Y-97.79
X55.88Y-100.33
X55.88Y-102.87
X55.88Y-105.41
X55.88Y-107.95
X55.88Y-110.49
X55.88Y-113.03
X58.42Y-63.5
X58.42Y-66.04
X58.42Y-68.58
X58.42Y-71.12
X58.42Y-73.66
X58.42Y-76.2
X58.42Y-78.74
X58.42Y-81.28
X58.42Y-83.82
X58.42Y-86.36
X58.42Y-92.71
X58.42Y-95.25
X58.42Y-97.79
X58.42Y-100.33
X58.42Y-102.87
X58.42Y-105.41
X58.42Y-107.95
X58.42Y-110.49
X58.42Y-113.03
X60.96Y-63.5
X60.96Y-66.04
X60.96Y-68.58
X60.96Y-71.12
X60.96Y-73.66
X60.96Y-76.2
X60.96Y-78.74
X60.96Y-81.28
X60.96Y-83.82
X60.96Y-86.36
X60.96Y-92.71
X60.96Y-95.25
X60.96Y-97.79
X60.96Y-100.33
X60.96Y-102.87
X60.96Y-105.41
X60.96Y-107.95
X60.96Y-110.49
X60.96Y-113.03
X63.5Y-63.5
X63.5Y-66.04
X63.5Y-68.58
X63.5Y-71.12
X63.5Y-73.66
X63.5Y-76.2
X63.5Y-78.74
X63.5Y-81.28
X63.5Y-83.82
X63.5Y-86.36
X63.5Y-92.71
X63.5Y-95.25
X63.5Y-97.79
X63.5Y-100.33
X63.5Y-102.87
X63.5Y-105.41
X63.5Y-107.95
X63.5Y-110.49
X63.5Y-113.03
X66.04Y-63.5
X66.04Y-66.04
X66.04Y-71.12
X66.04Y-73.66
X66.04Y-78.74
X66.04Y-81.28
X66.04Y-92.71
X66.04Y-95.25
X66.04Y-97.79
X66.04Y-100.33
X66.04Y-102.87
X66.04Y-105.41
X66.04Y-107.95
X66.04Y-110.49
X66.04Y-113.03
X67.31Y-86.36
X68.072Y-90.17
X68.58Y-63.5
X68.58Y-66.04
X68.58Y-71.12
X68.58Y-73.66
X68.58Y-78.74
X68.58Y-81.28
X68.58Y-92.71
X68.58Y-95.25
X68.58Y-113.03
X69.85Y-86.36
X71.12Y-63.5
X71.12Y-66.04
X71.12Y-71.12
X71.12Y-73.66
X71.12Y-78.74
X71.12Y-81.28
X71.12Y-92.71
X71.12Y-95.25
X71.12Y-113.03
X72.39Y-86.36
X73.66Y-63.5
X73.66Y-73.66
X73.66Y-78.74
X73.66Y-81.28
X73.66Y-92.71
X73.66Y-95.25
X73.66Y-113.03
X74.93Y-62.23
X75.438Y-99.06
X76.2Y-76.2
X76.2Y-78.74
X76.2Y-81.28
X76.2Y-83.82
X76.2Y-92.71
X76.2Y-95.25
X76.2Y-102.87
X76.2Y-105.41
X76.2Y-113.03
X77.47Y-62.23
X77.47Y-67.31
X77.47Y-69.85
X78.232Y-107.696
X78.74Y-78.74
X78.74Y-81.28
X78.74Y-83.82
X78.74Y-86.36
X78.74Y-92.71
X78.74Y-113.03
X80.01Y-62.23
X80.01Y-67.31
X80.01Y-69.85
X80.01Y-72.39
X80.772Y-93.98
X81.28Y-83.82
X81.28Y-86.36
X81.28Y-88.9
X81.28Y-107.95
X81.28Y-113.03
X82.55Y-62.23
X82.55Y-72.39
X82.55Y-74.93
X82.804Y-94.996
X83.82Y-113.03
X84.074Y-99.314
X84.329Y-66.549
X85.09Y-62.23
X85.09Y-74.93
X85.09Y-77.47
X85.09Y-102.87
X85.09Y-105.41
X85.09Y-107.95
X86.36Y-68.58
X86.36Y-113.03
X87.63Y-62.23
X87.63Y-74.93
X87.63Y-77.47
X87.63Y-82.55
X87.63Y-85.09
X87.63Y-87.63
X87.63Y-102.87
X87.63Y-105.41
X87.63Y-107.95
X88.9Y-97.79
X88.9Y-113.03
X90.17Y-62.23
X90.17Y-72.39
X90.17Y-74.93
X90.17Y-77.47
X90.17Y-102.87
X90.17Y-105.41
X90.17Y-107.95
X91.44Y-97.79
X91.44Y-113.03
X92.71Y-62.23
X92.71Y-72.39
X92.71Y-74.93
X92.71Y-77.47
X92.71Y-85.09
X92.71Y-87.63
X92.71Y-90.17
X92.71Y-102.87
X92.71Y-105.41
X92.71Y-107.95
X93.98Y-97.79
X93.98Y-113.03
X95.25Y-62.23
X95.25Y-64.77
X95.25Y-67.31
X95.25Y-69.85
X95.25Y-74.93
X95.25Y-102.87
X95.25Y-105.41
X95.25Y-107.95
X96.52Y-97.79
X96.52Y-113.03
X97.79Y-62.23
X97.79Y-74.93
X97.79Y-102.87
X97.79Y-105.41
X97.79Y-107.95
X99.06Y-97.79
X99.06Y-113.03
X100.076Y-74.93
X100.33Y-62.23
X100.33Y-66.04
X100.33Y-68.58
X100.33Y-71.12
X100.33Y-102.87
X100.33Y-105.41
X100.33Y-107.95
X101.6Y-72.39
X101.6Y-97.79
X101.6Y-113.03
X102.87Y-62.23
X102.87Y-71.12
X102.87Y-102.87
X102.87Y-105.41
X102.87Y-107.95
X103.378Y-81.026
X104.14Y-75.946
X104.14Y-95.25
X104.14Y-97.79
X104.14Y-113.03
X105.41Y-62.23
X105.41Y-102.87
X105.41Y-105.41
X105.41Y-107.95
X106.68Y-74.93
X106.68Y-92.71
X106.68Y-95.25
X106.68Y-97.79
X106.68Y-113.03
X107.95Y-62.23
X107.95Y-64.77
X107.95Y-102.87
X107.95Y-105.41
X107.95Y-107.95
X109.22Y-72.39
X109.22Y-74.93
X109.22Y-77.47
X109.22Y-80.01
X109.22Y-82.55
X109.22Y-85.09
X109.22Y-87.63
X109.22Y-90.17
X109.22Y-92.71
X109.22Y-95.25
X109.22Y-97.79
X109.22Y-113.03
X110.49Y-62.23
X110.49Y-102.87
X110.49Y-105.41
X110.49Y-107.95
X111.76Y-72.39
X111.76Y-74.93
X111.76Y-77.47
X111.76Y-80.01
X111.76Y-82.55
X111.76Y-85.09
X111.76Y-87.63
X111.76Y-90.17
X111.76Y-92.71
X111.76Y-95.25
X111.76Y-97.79
X111.76Y-113.03
X113.03Y-62.23
X113.03Y-102.87
X114.3Y-72.39
X114.3Y-74.93
X114.3Y-77.47
X114.3Y-80.01
X114.3Y-82.55
X114.3Y-85.09
X114.3Y-87.63
X114.3Y-90.17
X114.3Y-92.71
X114.3Y-95.25
X114.3Y-113.03
X115.57Y-62.23
X115.57Y-64.77
X115.57Y-67.31
X116.84Y-72.39
X116.84Y-74.93
X116.84Y-77.47
X116.84Y-80.01
X116.84Y-82.55
X116.84Y-85.09
X116.84Y-87.63
X116.84Y-90.17
X116.84Y-92.71
X116.84Y-113.03
X118.11Y-62.23
X119.38Y-69.85
X119.38Y-72.39
X119.38Y-74.93
X119.38Y-77.47
X119.38Y-80.01
X119.38Y-82.55
X119.38Y-85.09
X119.38Y-87.63
X119.38Y-90.17
X119.38Y-97.79
X119.38Y-100.33
X119.38Y-113.03
X120.65Y-62.23
X121.92Y-69.85
X121.92Y-72.39
X121.92Y-74.93
X121.92Y-77.47
X121.92Y-80.01
X121.92Y-82.55
X121.92Y-85.09
X121.92Y-87.63
X121.92Y-95.25
X121.92Y-97.79
X121.92Y-100.33
X121.92Y-110.49
X121.92Y-113.03
X123.19Y-62.23
X124.46Y-69.85
X124.46Y-72.39
X124.46Y-74.93
X124.46Y-77.47
X124.46Y-80.01
X124.46Y-82.55
X124.46Y-85.09
X124.46Y-95.25
X124.46Y-97.79
X124.46Y-100.33
X124.46Y-110.49
X124.46Y-113.03
X125.73Y-62.23
X127.0Y-69.85
X127.0Y-72.39
X127.0Y-74.93
X127.0Y-77.47
X127.0Y-80.01
X127.0Y-82.55
X127.0Y-97.79
X127.0Y-100.33
X127.0Y-110.49
X127.0Y-113.03
X128.27Y-62.23
X129.54Y-69.85
X129.54Y-72.39
X129.54Y-74.93
X129.54Y-77.47
X129.54Y-80.01
X129.54Y-82.55
X129.54Y-110.49
X129.54Y-113.03
X130.81Y-62.23
X131.572Y-63.947
X131.572Y-63.947
X131.572Y-68.58
X132.08Y-69.85
X132.08Y-72.39
X132.08Y-74.93
X132.08Y-77.47
X132.08Y-80.01
X132.08Y-82.55
X132.08Y-92.71
X132.08Y-95.25
X132.08Y-97.79
X132.08Y-113.03
X132.572Y-66.024
X132.842Y-67.31
X133.35Y-62.23
X134.62Y-63.947
X134.62Y-69.85
X134.62Y-72.39
X134.62Y-74.93
X134.62Y-77.47
X134.62Y-80.01
X134.62Y-92.71
X134.62Y-95.25
X134.62Y-97.79
X134.62Y-113.03
X135.636Y-66.548
X135.89Y-62.23
X137.16Y-72.39
X137.16Y-74.93
X137.16Y-77.47
X137.16Y-80.01
X137.16Y-92.71
X137.16Y-95.25
X137.16Y-97.79
X137.16Y-113.03
X146.05Y-62.23
X146.05Y-71.12
X146.05Y-73.66
X146.05Y-76.2
X146.05Y-78.74
X147.955Y-67.945
X147.955Y-70.485
X147.955Y-73.025
X147.955Y-74.93
X148.082Y-79.248
X148.082Y-89.408
X148.59Y-62.23
X148.59Y-66.04
X149.86Y-74.93
X149.86Y-82.55
X151.13Y-62.23
X151.13Y-66.04
X151.13Y-70.485
X152.4Y-74.93
X152.4Y-82.55
X153.67Y-62.23
X154.305Y-66.04
X154.94Y-70.485
X154.94Y-74.93
X154.94Y-82.55
X156.21Y-78.74
X157.48Y-70.485
X157.48Y-81.28
X158.75Y-78.74
X161.925Y-69.215
X161.925Y-71.755
X162.56Y-62.23
X162.56Y-64.77
X165.1Y-62.23
X165.1Y-64.77
X165.1Y-71.12
X167.64Y-62.23
X167.64Y-64.77
X167.64Y-71.12
X167.64Y-74.93
X168.275Y-66.675
X168.275Y-68.58
X173.99Y-69.85
X176.53Y-66.04
X176.53Y-68.58
X176.53Y-71.12
X176.53Y-73.66
X179.07Y-66.04
X179.07Y-71.12
X179.07Y-73.66
X179.705Y-62.23
X181.61Y-71.12
X181.61Y-73.66
X182.245Y-62.23
T2
X149.525Y-98.923
X149.525Y-100.253
X149.525Y-101.593
X149.525Y-102.923
X149.525Y-108.923
X149.525Y-110.253
X149.525Y-111.593
X149.525Y-112.923
X149.915Y-97.723
X149.915Y-104.123
X149.915Y-107.723
X149.915Y-114.123
X150.945Y-96.973
X150.945Y-104.873
X150.945Y-106.973
X150.945Y-114.873
X152.205Y-96.973
X152.205Y-104.873
X152.205Y-106.973
X152.205Y-114.873
X153.235Y-97.723
X153.235Y-104.123
X153.235Y-107.723
X153.235Y-114.123
X153.625Y-98.923
X153.625Y-100.253
X153.625Y-101.593
X153.625Y-102.923
X153.625Y-108.923
X153.625Y-110.253
X153.625Y-111.593
X153.625Y-112.923
T3
X130.175Y-104.013
X130.175Y-105.923
X130.175Y-107.833
T4
X70.866Y-100.838
X70.866Y-103.378
X70.866Y-105.918
X70.866Y-108.458
X73.406Y-100.838
X73.406Y-103.378
X73.406Y-105.918
X73.406Y-108.458
T5
X197.812Y-66.802
X197.812Y-74.422
X197.812Y-82.042
X200.252Y-66.802
X200.252Y-74.422
X200.252Y-82.042
X202.692Y-66.802
X202.692Y-74.422
X202.692Y-82.042
X197.812Y-93.98
X197.812Y-101.6
X197.812Y-109.22
X200.252Y-93.98
X200.252Y-101.6
X200.252Y-109.22
X202.692Y-93.98
X202.692Y-101.6
X202.692Y-109.22
X68.072Y-68.58
X68.072Y-76.2
X68.072Y-83.82
X70.512Y-68.58
X70.512Y-76.2
X70.512Y-83.82
X72.952Y-68.58
X72.952Y-76.2
X72.952Y-83.82
T7
X219.202Y-118.618
X51.054Y-57.15
X219.202Y-57.15
X51.054Y-118.618
T6
G00X151.575Y-98.923
M15
G01X151.575Y-102.923
M16
G05
G00X151.575Y-108.923
M15
G01X151.575Y-112.923
M16
G05
T0
M30
