%TF.GenerationSoftware,KiCad,Pcbnew,(5.1.8)-1*%
%TF.CreationDate,2021-03-15T08:23:40+01:00*%
%TF.ProjectId,MeasCard,4d656173-4361-4726-942e-6b696361645f,rev?*%
%TF.SameCoordinates,Original*%
%TF.FileFunction,Soldermask,Bot*%
%TF.FilePolarity,Negative*%
%FSLAX46Y46*%
G04 Gerber Fmt 4.6, Leading zero omitted, Abs format (unit mm)*
G04 Created by KiCad (PCBNEW (5.1.8)-1) date 2021-03-15 08:23:40*
%MOMM*%
%LPD*%
G01*
G04 APERTURE LIST*
%ADD10C,2.200000*%
%ADD11R,2.200000X2.200000*%
%ADD12C,5.700000*%
%ADD13O,6.000000X9.000000*%
%ADD14R,1.500000X1.500000*%
%ADD15C,1.500000*%
%ADD16C,0.800000*%
%ADD17C,1.800000*%
%ADD18R,1.800000X1.800000*%
G04 APERTURE END LIST*
D10*
%TO.C,J4*%
X72952000Y-83820000D03*
X70512000Y-83820000D03*
X68072000Y-83820000D03*
X72952000Y-76200000D03*
X70512000Y-76200000D03*
X68072000Y-76200000D03*
X72952000Y-68580000D03*
X70512000Y-68580000D03*
D11*
X68072000Y-68580000D03*
%TD*%
D10*
%TO.C,J2*%
X197812000Y-93980000D03*
X200252000Y-93980000D03*
X202692000Y-93980000D03*
X197812000Y-101600000D03*
X200252000Y-101600000D03*
X202692000Y-101600000D03*
X197812000Y-109220000D03*
X200252000Y-109220000D03*
D11*
X202692000Y-109220000D03*
%TD*%
D10*
%TO.C,J1*%
X197812000Y-66802000D03*
X200252000Y-66802000D03*
X202692000Y-66802000D03*
X197812000Y-74422000D03*
X200252000Y-74422000D03*
X202692000Y-74422000D03*
X197812000Y-82042000D03*
X200252000Y-82042000D03*
D11*
X202692000Y-82042000D03*
%TD*%
D12*
%TO.C,H4*%
X219202000Y-118618000D03*
%TD*%
%TO.C,H3*%
X51054000Y-57150000D03*
%TD*%
%TO.C,H2*%
X219202000Y-57150000D03*
%TD*%
%TO.C,H1*%
X51054000Y-118618000D03*
%TD*%
D13*
%TO.C,U1*%
X151575000Y-100923000D03*
X151575000Y-110923000D03*
D14*
X130175000Y-104013000D03*
D15*
X130175000Y-107833000D03*
X130175000Y-105923000D03*
G36*
G01*
X152567523Y-104703953D02*
X152567523Y-104703953D01*
G75*
G02*
X152374047Y-105235523I-362523J-169047D01*
G01*
X152374047Y-105235523D01*
G75*
G02*
X151842477Y-105042047I-169047J362523D01*
G01*
X151842477Y-105042047D01*
G75*
G02*
X152035953Y-104510477I362523J169047D01*
G01*
X152035953Y-104510477D01*
G75*
G02*
X152567523Y-104703953I169047J-362523D01*
G01*
G37*
G36*
G01*
X150582477Y-104703953D02*
X150582477Y-104703953D01*
G75*
G02*
X151114047Y-104510477I362523J-169047D01*
G01*
X151114047Y-104510477D01*
G75*
G02*
X151307523Y-105042047I-169047J-362523D01*
G01*
X151307523Y-105042047D01*
G75*
G02*
X150775953Y-105235523I-362523J169047D01*
G01*
X150775953Y-105235523D01*
G75*
G02*
X150582477Y-104703953I169047J362523D01*
G01*
G37*
D16*
X149915000Y-104123000D03*
X153235000Y-104123000D03*
X152205000Y-96973000D03*
X150945000Y-96973000D03*
X149915000Y-97723000D03*
X153235000Y-97723000D03*
X149525000Y-101593000D03*
X149525000Y-100253000D03*
X149525000Y-102923000D03*
X149525000Y-98923000D03*
X153625000Y-101593000D03*
X153625000Y-100253000D03*
X153625000Y-98923000D03*
X153625000Y-102923000D03*
X149915000Y-107723000D03*
X153235000Y-107723000D03*
G36*
G01*
X151307523Y-106803953D02*
X151307523Y-106803953D01*
G75*
G02*
X151114047Y-107335523I-362523J-169047D01*
G01*
X151114047Y-107335523D01*
G75*
G02*
X150582477Y-107142047I-169047J362523D01*
G01*
X150582477Y-107142047D01*
G75*
G02*
X150775953Y-106610477I362523J169047D01*
G01*
X150775953Y-106610477D01*
G75*
G02*
X151307523Y-106803953I169047J-362523D01*
G01*
G37*
G36*
G01*
X151842477Y-106803953D02*
X151842477Y-106803953D01*
G75*
G02*
X152374047Y-106610477I362523J-169047D01*
G01*
X152374047Y-106610477D01*
G75*
G02*
X152567523Y-107142047I-169047J-362523D01*
G01*
X152567523Y-107142047D01*
G75*
G02*
X152035953Y-107335523I-362523J169047D01*
G01*
X152035953Y-107335523D01*
G75*
G02*
X151842477Y-106803953I169047J362523D01*
G01*
G37*
X149915000Y-114123000D03*
X153235000Y-114123000D03*
X152205000Y-114873000D03*
X149525000Y-112923000D03*
X149525000Y-111593000D03*
X149525000Y-110253000D03*
X149525000Y-108923000D03*
X153625000Y-112923000D03*
X153625000Y-111593000D03*
X153625000Y-110253000D03*
X153625000Y-108923000D03*
X150945000Y-114873000D03*
%TD*%
D17*
%TO.C,J3*%
X73406000Y-108458000D03*
X70866000Y-108458000D03*
X73406000Y-105918000D03*
X70866000Y-105918000D03*
X73406000Y-103378000D03*
X70866000Y-103378000D03*
X73406000Y-100838000D03*
D18*
X70866000Y-100838000D03*
%TD*%
M02*
